<?xml version="1.0" encoding="utf-8"?>
<!-- Generator: Adobe Illustrator 24.1.0, SVG Export Plug-In . SVG Version: 6.00 Build 0)  -->
<svg version="1.1" id="freepik_stories-contraception-methods" xmlns:svgjs="http://svgjs.com/svgjs"
	 xmlns="http://www.w3.org/2000/svg" xmlns:xlink="http://www.w3.org/1999/xlink" x="0px" y="0px" viewBox="0 0 500 500"
	 style="enable-background:new 0 0 500 500;" xml:space="preserve">
<style type="text/css">
	.st0{fill:#1F2937;}
	.st1{opacity:0.9;fill:#1F2937;enable-background:new    ;}
	.st2{display:none;}
	.st3{display:inline;fill:#F5F5F5;}
	.st4{fill:#16A085;}
	.st5{fill:#FFFFFF;}
	.st6{opacity:0.4;fill:#FFFFFF;enable-background:new    ;}
	.st7{opacity:0.5;fill:#FFFFFF;enable-background:new    ;}
	.st8{opacity:0.4;}
	.st9{opacity:0.7;fill:#FFFFFF;enable-background:new    ;}
	.st10{opacity:0.6;fill:#FFFFFF;enable-background:new    ;}
	.st11{opacity:0.2;fill:#16A085;enable-background:new    ;}
	.st12{fill:#263238;}
	.st13{fill:#FFB573;}
	.st14{opacity:0.1;fill:#FFFFFF;enable-background:new    ;}
	.st15{opacity:0.2;enable-background:new    ;}
	.st16{fill:#ED893E;}
	.st17{opacity:0.8;fill:#FFFFFF;enable-background:new    ;}
	.st18{fill:#E0E0E0;}
	.st19{opacity:0.3;enable-background:new    ;}
</style>
<g id="freepik--background-simple--inject-69">
	<path id="elu5uwaqhyxp" class="st0" d="M106.1,319.9c-23.8-29.7-9-85.8,27-119.9c31.4-29.8,65.3-26.6,92.7-65
		c25.6-35.8,39.1-74,87.6-89.2c38.2-11.9,64.4,7.3,87.6,29.6c63.4,61.2,49.6,125.4-33.2,191.2c-39.6,31.4-91.6,66.2-138.5,81.5
		C173.1,366.5,135.6,356.6,106.1,319.9z"/>
	<g id="elpj14b9b9le">
		<path id="eltf8ksed9cbr" class="st1" d="M106.1,319.9c-23.8-29.7-9-85.8,27-119.9c31.4-29.8,65.3-26.6,92.7-65
			c25.6-35.8,39.1-74,87.6-89.2c38.2-11.9,64.4,7.3,87.6,29.6c63.4,61.2,49.6,125.4-33.2,191.2c-39.6,31.4-91.6,66.2-138.5,81.5
			C173.1,366.5,135.6,356.6,106.1,319.9z"/>
	</g>
</g>
<g id="freepik--Shadow--inject-69" class="st2">
	<ellipse id="freepik--path--inject-69" class="st3" cx="250" cy="416.2" rx="193.9" ry="11.3"/>
</g>
<g id="freepik--contraception-methods--inject-69">
	<g id="elbi5rtunglri">
		
			<ellipse id="el22kohm2olfaj" transform="matrix(0.1666 -0.986 0.986 0.1666 157.1162 290.8274)" class="st4" cx="250.6" cy="52.5" rx="20.6" ry="20.6"/>
	</g>
	<polygon id="elyoqcx71gfl" class="st5" points="253.6,52 248.4,54.5 244.1,45.8 245.9,43 249.2,43.2 	"/>
	<path id="eld5aqffop9hg" class="st5" d="M246.5,44.6c-0.2,0-0.4-0.1-0.4-0.3l-3-6.2c-0.1-0.2,0-0.5,0.2-0.7c0.2-0.1,0.5,0,0.7,0.2
		l3,6.2c0.1,0.2,0,0.5-0.2,0.7c0,0,0,0,0,0C246.6,44.6,246.5,44.6,246.5,44.6z"/>
	<g id="elmn3zvnoo43k">
		<polygon id="el4wgkxoa3pw3" class="st6" points="256.8,58.6 253.8,52.5 248.7,55 251.7,61.1 250,62 250.3,62.7 258.9,58.4 
			258.5,57.7 		"/>
	</g>
	<polygon id="elj43rpvi7ehh" class="st5" points="257.6,63.6 252.5,53.2 250,54.4 255.2,64.8 254.3,65.3 254.7,66 258.8,63.9 
		258.5,63.2 	"/>
	<path id="els4173d86kc" class="st4" d="M347.8,89.3c-6.7,9.2-19.5,11.3-28.7,4.6c-9.2-6.7-11.3-19.5-4.6-28.7
		c6.7-9.2,19.5-11.3,28.7-4.6c0,0,0,0,0,0C352.4,67.2,354.5,80.1,347.8,89.3z"/>
	<path id="elz99a20jafqa" class="st5" d="M338.1,66.7l-3.9,5.3c-0.1,0.1-0.2,0.1-0.2,0c0,0,0,0,0,0c-0.4-0.7-1.2-2.9,3.9-5.5
		c0.1,0,0.2,0,0.2,0.1C338.2,66.6,338.1,66.7,338.1,66.7z"/>
	<path id="elvgkkot892si" class="st5" d="M327.6,87.8c-0.1,0-0.2,0-0.2-0.1c-0.2-0.1-0.3-0.4-0.2-0.7c0,0,0,0,0,0l7.6-13.7
		c0.2-0.3,0.2-0.6,0-0.9l-0.7-1c-0.2-0.2-0.1-0.5,0.1-0.7c0,0,0,0,0,0c0.2-0.2,0.5-0.1,0.7,0.1l0.7,1c0.4,0.6,0.5,1.4,0.1,2
		l-7.6,13.7C328,87.7,327.8,87.8,327.6,87.8z"/>
	<path id="el8ymstmvsrxc" class="st5" d="M329.7,91.8c-1.7-0.1-3-1.6-2.8-3.3c0.1-1.7,1.6-3,3.3-2.8s3,1.6,2.8,3.3
		c-0.1,1.5-1.3,2.7-2.8,2.8C330,91.8,329.9,91.8,329.7,91.8z M329.7,86.8c-0.1,0-0.2,0-0.3,0c-0.5,0.1-1,0.4-1.3,0.8
		c-0.7,0.9-0.5,2.1,0.4,2.8c0,0,0,0,0,0c0.9,0.7,2.1,0.5,2.8-0.4c0,0,0,0,0-0.1l0,0c0.7-0.9,0.5-2.1-0.4-2.8
		C330.6,86.9,330.2,86.7,329.7,86.8L329.7,86.8z"/>
	<path id="eljlfdmkcj9cn" class="st5" d="M339,67.3l-3.9,5.3c-0.1,0.1,0,0.2,0,0.2c0,0,0,0,0.1,0c0.7,0.2,3.2,0.3,4-5.4
		C339.2,67.3,339.1,67.3,339,67.3C339,67.3,339,67.3,339,67.3z"/>
	<path id="el3odq1ic21ch" class="st5" d="M322.7,84.2c-0.1,0-0.2-0.1-0.3-0.1c-0.2-0.2-0.2-0.5,0-0.7c0,0,0,0,0,0L333,71.8
		c0.5-0.5,1.2-0.7,1.9-0.5l1.2,0.3c0.3,0.1,0.4,0.3,0.3,0.6c0,0,0,0,0,0c-0.1,0.3-0.4,0.4-0.6,0.3l-1.2-0.3c-0.3-0.1-0.7,0-0.9,0.2
		L323,84C322.9,84.1,322.8,84.2,322.7,84.2z"/>
	<path id="el2f2ysh5sm2b" class="st5" d="M320.6,85.2c-0.6,0-1.3-0.2-1.8-0.6c-1.4-1-1.7-2.8-0.7-4.2c0,0,0,0,0-0.1l0,0
		c0.5-0.7,1.2-1.1,2-1.2c0.8-0.1,1.6,0.1,2.3,0.5c1.4,0.9,1.7,2.8,0.8,4.2c-0.5,0.7-1.2,1.2-2.1,1.3
		C320.9,85.2,320.8,85.2,320.6,85.2z M320.6,80.2c-0.1,0-0.2,0-0.3,0c-0.5,0.1-1,0.4-1.3,0.8l0,0c-0.6,0.9-0.4,2.2,0.5,2.8
		c0.9,0.6,2.2,0.4,2.8-0.5c0.6-0.9,0.4-2.1-0.4-2.7C321.5,80.3,321.1,80.2,320.6,80.2L320.6,80.2z M318.5,80.7L318.5,80.7z"/>
	<g id="elaq3sfq1ian">
		<circle id="elg3ct4u3fg8o" class="st4" cx="377" cy="147.9" r="20.6"/>
	</g>
	<g id="el5hsm0n4q9tk">
		<path id="el86ipzp1sq8x" class="st7" d="M390,145.7l-4.4,14c-0.5,1.6-2.2,2.5-3.9,2l-16.6-5.2c-1.6-0.5-2.5-2.2-2-3.9l5.2-16.6
			c0.5-1.6,2.2-2.5,3.9-2l14,4.4l-0.8,2.6c-0.5,1.6,0.4,3.3,2,3.9L390,145.7z"/>
	</g>
	<g id="eltbs40f34ac">
		<path id="elbz6qp9diufw" class="st7" d="M388.4,145.2l-4.4,14c-0.2,0.7-1,1.1-1.8,0.9l-16.6-5.2c-0.7-0.2-1.1-1-0.9-1.8l5.3-16.6
			c0.2-0.7,1-1.1,1.8-0.9c0,0,0,0,0,0l14,4.4l-0.3,1c-0.5,1.6,0.4,3.3,2,3.9L388.4,145.2z"/>
	</g>
	<g id="eliwzs46zsh8">
		<path id="eliq39x5fza8" class="st7" d="M377.8,148.2c-0.1,0.5-0.6,0.7-1.1,0.6c-0.5-0.1-0.7-0.6-0.6-1.1c0.1-0.5,0.6-0.7,1.1-0.6
			C377.7,147.2,378,147.7,377.8,148.2z"/>
	</g>
	<g id="ely67oytju8um">
		<path id="elsiuw7ijodss" class="st7" d="M376.9,151.1c-0.1,0.5-0.6,0.7-1.1,0.6c0,0,0,0,0,0c-0.5-0.2-0.7-0.6-0.6-1.1
			c0.2-0.5,0.7-0.7,1.2-0.5C376.8,150.2,377,150.7,376.9,151.1L376.9,151.1z"/>
	</g>
	<g id="ell6540shiqje">
		<path id="elk5ekambfk6" class="st7" d="M378.7,145.3c-0.1,0.5-0.6,0.7-1.1,0.6c-0.5-0.1-0.7-0.6-0.6-1.1c0.1-0.5,0.6-0.7,1.1-0.6
			C378.6,144.4,378.9,144.9,378.7,145.3C378.7,145.3,378.7,145.3,378.7,145.3z"/>
	</g>
	<g id="els2u83l3039e">
		<path id="el3maobvv6esv" class="st7" d="M380.7,149.1c-0.1,0.5-0.6,0.7-1.1,0.6c0,0,0,0,0,0c-0.5-0.1-0.7-0.6-0.6-1.1
			c0.1-0.5,0.6-0.7,1.1-0.6C380.6,148.1,380.8,148.6,380.7,149.1z"/>
	</g>
	<g id="el0f3ujpts7tw">
		<path id="el8alvm8ooq1v" class="st7" d="M379.8,152c-0.1,0.5-0.6,0.7-1.1,0.6c-0.5-0.1-0.7-0.6-0.6-1.1s0.6-0.7,1.1-0.6
			C379.7,151,379.9,151.5,379.8,152L379.8,152z"/>
	</g>
	<g id="elffuc80unbsp">
		<path id="elmnt6sn6zei" class="st7" d="M381.6,146.2c-0.1,0.5-0.6,0.7-1.1,0.6c0,0,0,0,0,0c-0.5-0.2-0.7-0.6-0.6-1.1
			c0.2-0.5,0.7-0.7,1.2-0.5C381.5,145.4,381.7,145.8,381.6,146.2L381.6,146.2z"/>
	</g>
	<g id="elfv8fm43k6bu">
		<path id="elgy9q0ylvmpr" class="st7" d="M383.6,150c-0.2,0.5-0.7,0.7-1.1,0.5c-0.4-0.2-0.7-0.6-0.6-1.1c0.1-0.5,0.6-0.7,1.1-0.6
			C383.4,149,383.7,149.5,383.6,150C383.6,150,383.6,150,383.6,150z"/>
	</g>
	<g id="eloarz0wuwhcq">
		<path id="elh0w57i98p46" class="st7" d="M382.7,152.9c-0.1,0.5-0.6,0.7-1.1,0.6c-0.5-0.1-0.7-0.6-0.6-1.1c0.1-0.5,0.6-0.7,1.1-0.6
			C382.6,151.9,382.8,152.4,382.7,152.9z"/>
	</g>
	<g id="el1lejvlcnb4r">
		<path id="el1pg413d99dr" class="st7" d="M384.5,147.1c-0.1,0.5-0.6,0.7-1.1,0.6c-0.5-0.1-0.7-0.6-0.6-1.1c0.1-0.5,0.6-0.7,1.1-0.6
			C384.4,146.2,384.6,146.7,384.5,147.1z"/>
	</g>
	<g id="elub2sy3gdsb8">
		<path id="eleyjbma4frna" class="st7" d="M374.9,147.3c-0.1,0.5-0.6,0.7-1.1,0.6c-0.5-0.1-0.7-0.6-0.6-1.1c0.1-0.5,0.6-0.7,1.1-0.6
			C374.8,146.3,375.1,146.8,374.9,147.3z"/>
	</g>
	<g id="eluo43bi7yyho">
		<path id="el5dfzev5vwab" class="st7" d="M374,150.2c-0.1,0.5-0.6,0.7-1.1,0.6c-0.5-0.1-0.7-0.6-0.6-1.1c0.1-0.5,0.6-0.7,1.1-0.6
			C373.9,149.2,374.1,149.7,374,150.2C374,150.2,374,150.2,374,150.2z"/>
	</g>
	<g id="eloq6hxfv53vj">
		<path id="elag56mi6a0nu" class="st7" d="M375.8,144.4c-0.1,0.5-0.6,0.7-1.1,0.6c0,0,0,0,0,0c-0.5-0.1-0.7-0.6-0.6-1.1
			c0.1-0.5,0.6-0.7,1.1-0.6C375.7,143.4,376,143.9,375.8,144.4z"/>
	</g>
	<g id="elurnt1bjtnl">
		<path id="elv4fipcuv5k" class="st7" d="M372,146.4c-0.1,0.5-0.6,0.7-1.1,0.6c0,0,0,0,0,0c-0.5-0.2-0.7-0.6-0.6-1.1
			c0.2-0.5,0.7-0.7,1.2-0.5C371.9,145.5,372.1,146,372,146.4L372,146.4z"/>
	</g>
	<g id="elherbyoihoq8">
		<path id="el6vj55lfes4f" class="st7" d="M371.1,149.3c-0.1,0.5-0.6,0.7-1.1,0.6c0,0,0,0,0,0c-0.5-0.1-0.7-0.6-0.6-1.1
			c0.1-0.5,0.6-0.7,1.1-0.6C371,148.3,371.3,148.8,371.1,149.3z"/>
	</g>
	<g id="elo8xztg3brkp">
		<path id="elbros2d5kalv" class="st7" d="M373,143.5c-0.1,0.5-0.6,0.7-1.1,0.6c-0.5-0.1-0.7-0.6-0.6-1.1c0.1-0.5,0.6-0.7,1.1-0.6
			C372.9,142.5,373.1,143,373,143.5z"/>
	</g>
	<path id="elb8mhyy617i" class="st5" d="M386.2,138.5l-0.8,2.6c-0.5,1.6,0.4,3.3,2,3.9l2.6,0.8L386.2,138.5z"/>
	<g id="eliwp4ob88m9m">
		<circle id="elhtvta6hd62v" class="st4" cx="173" cy="85.3" r="20.6"/>
	</g>
	<g id="elfganvro0keo">
		<g id="el21bbzrte8gl" class="st8">
			<path id="el7sepnjixav3" class="st5" d="M173,71.6c-7.6,0-13.7,6.1-13.7,13.7c0,7.6,6.1,13.7,13.7,13.7s13.7-6.1,13.7-13.7
				C186.7,77.8,180.6,71.6,173,71.6C173,71.6,173,71.6,173,71.6z M173,95.7c-5.8,0-10.4-4.6-10.4-10.4s4.6-10.4,10.4-10.4
				c5.8,0,10.4,4.6,10.4,10.4c0,0,0,0,0,0C183.4,91.1,178.7,95.7,173,95.7z"/>
		</g>
	</g>
	<g id="el1zcn5u6getv">
		<g id="elnlvi1yw1ejf" class="st8">
			<path id="el1j4z1cdf2dt" class="st5" d="M173,74c-6.3,0-11.3,5.1-11.3,11.3c0,6.3,5.1,11.3,11.3,11.3s11.3-5.1,11.3-11.3v0
				C184.3,79.1,179.3,74,173,74z M173,95.8c-5.8,0-10.4-4.6-10.4-10.4c0-5.8,4.6-10.4,10.4-10.4c5.8,0,10.4,4.6,10.4,10.4
				C183.4,91.1,178.7,95.7,173,95.8L173,95.8z"/>
		</g>
	</g>
	<g id="elvrakri79bf">
		<circle id="elcm3f493boj" class="st4" cx="366.6" cy="231.6" r="20.6"/>
	</g>
	<g id="elfxhilokq48q">
		<path id="el5oz641gde3l" class="st9" d="M355.3,225.8h22.6c0.9,0,1.6,0.7,1.6,1.6v8.3c0,0.9-0.7,1.6-1.6,1.6h-22.6
			c-0.9,0-1.6-0.7-1.6-1.6v-8.3C353.7,226.5,354.4,225.8,355.3,225.8z"/>
	</g>
	<path id="elbcld7ax9kt9" class="st5" d="M369.7,231.3c-0.7,0.5-1.7,0.3-2.2-0.4c-0.5-0.7-0.3-1.7,0.4-2.2c0.7-0.5,1.7-0.3,2.2,0.4
		c0,0,0,0,0,0C370.5,229.8,370.4,230.8,369.7,231.3z"/>
	<path id="elpvca324gp7" class="st5" d="M365.4,234.4c-0.7,0.5-1.7,0.3-2.2-0.4c-0.5-0.7-0.3-1.7,0.4-2.2c0.7-0.5,1.7-0.3,2.2,0.4
		c0,0,0,0,0,0C366.2,232.9,366.1,233.9,365.4,234.4C365.4,234.4,365.4,234.4,365.4,234.4z"/>
	<path id="el8u1fuw34z6b" class="st5" d="M372.4,235.1c-0.7,0.5-1.7,0.3-2.2-0.4c-0.5-0.7-0.3-1.7,0.4-2.2c0.7-0.5,1.7-0.3,2.2,0.4
		c0,0,0,0,0,0C373.3,233.6,373.1,234.6,372.4,235.1z"/>
	<path id="elzswaoofjnpj" class="st5" d="M368.1,238.2c-0.7,0.5-1.7,0.3-2.2-0.4c-0.5-0.7-0.3-1.7,0.4-2.2c0.7-0.5,1.7-0.3,2.2,0.4
		C368.9,236.7,368.8,237.7,368.1,238.2C368.1,238.2,368.1,238.2,368.1,238.2z"/>
	<path id="elt2pq4ps053h" class="st5" d="M375.1,238.9c-0.7,0.5-1.7,0.4-2.2-0.4c-0.5-0.7-0.4-1.7,0.4-2.2s1.7-0.4,2.2,0.4
		c0,0,0,0,0,0C376,237.4,375.8,238.4,375.1,238.9z"/>
	<path id="el403uoh1kcgp" class="st5" d="M370.8,242c-0.7,0.5-1.7,0.3-2.2-0.4c-0.5-0.7-0.3-1.7,0.4-2.2c0.7-0.5,1.7-0.3,2.2,0.4
		c0,0,0,0,0,0C371.6,240.5,371.5,241.5,370.8,242z"/>
	<path id="el5hf7khc9uud" class="st5" d="M367,227.5c-0.7,0.5-1.7,0.3-2.2-0.4c-0.5-0.7-0.3-1.7,0.4-2.2c0.7-0.5,1.7-0.3,2.2,0.4
		C367.9,226,367.7,227,367,227.5z"/>
	<path id="el7s5qxex0xba" class="st5" d="M362.6,230.6c-0.7,0.5-1.7,0.4-2.2-0.4c-0.5-0.7-0.4-1.7,0.4-2.2s1.7-0.4,2.2,0.4
		c0,0,0,0,0,0C363.5,229.1,363.4,230.1,362.6,230.6C362.7,230.6,362.6,230.6,362.6,230.6z"/>
	<path id="el60r42wkwbb" class="st5" d="M364.3,223.7c-0.7,0.5-1.7,0.3-2.2-0.4c-0.5-0.7-0.3-1.7,0.4-2.2c0.7-0.5,1.7-0.3,2.2,0.4
		c0,0,0,0,0,0C365.1,222.2,365,223.2,364.3,223.7z"/>
	<path id="el3av65p0lbck" class="st5" d="M359.9,226.8c-0.7,0.5-1.7,0.3-2.2-0.4c-0.5-0.7-0.3-1.7,0.4-2.2c0.7-0.5,1.7-0.3,2.2,0.4
		C360.8,225.3,360.6,226.3,359.9,226.8C359.9,226.8,359.9,226.8,359.9,226.8z"/>
	<path id="el5ofznpwt9y2" class="st4" d="M166.6,258.3c-8.8,7.2-21.7,6-29-2.8c-7.2-8.8-6-21.7,2.8-29c8.8-7.2,21.7-6,29,2.7
		C176.6,238.1,175.4,251.1,166.6,258.3C166.6,258.3,166.6,258.3,166.6,258.3z"/>
	<g id="ely6lay7o9xi">
		<path id="elz5xlykj4g7" class="st10" d="M142.1,251.9L142.1,251.9c-0.4-0.5-0.4-1.3,0.2-1.7l21-17.4c0.5-0.4,1.3-0.4,1.7,0.2
			c0,0,0,0,0,0l0,0c0.4,0.5,0.4,1.3-0.2,1.7c0,0,0,0,0,0l-21,17.4C143.3,252.5,142.5,252.5,142.1,251.9
			C142.1,251.9,142.1,251.9,142.1,251.9z"/>
	</g>
	<g id="el1db5n4iqvv9">
		<path id="el5ldq5n3rpsr" class="st10" d="M161.5,235.9L161.5,235.9c-0.3-0.3-0.2-0.9,0.1-1.2c0,0,0,0,0,0l1.6-1.4
			c0.4-0.3,0.9-0.2,1.2,0.1l0,0c0.3,0.4,0.2,0.9-0.1,1.2l-1.7,1.4C162.3,236.3,161.8,236.2,161.5,235.9
			C161.5,235.9,161.5,235.9,161.5,235.9z"/>
	</g>
	<g id="el0xfigpa0f0ac">
		<path id="elw4jcl72r6i" class="st10" d="M143.9,249.8L143.9,249.8c-0.1-0.1-0.1-0.3,0-0.4l11.7-9.7c0.1-0.1,0.3-0.1,0.4,0l0,0
			c0.1,0.1,0.1,0.3,0,0.4l-11.7,9.7C144.2,249.9,144,249.9,143.9,249.8z"/>
	</g>
	<g id="elvxgfs04wi9p">
		<circle id="elx0iu4p7cid" class="st4" cx="134.6" cy="160.4" r="20.6"/>
	</g>
	<g id="el3tqn4y7rfa4">
		<path id="elibq71wcoxs" class="st6" d="M123.3,149.6H146c1.2,0,2.1,0.9,2.1,2.1V169c0,1.2-0.9,2.1-2.1,2.1h-22.7
			c-1.2,0-2.1-0.9-2.1-2.1v-17.2C121.2,150.6,122.2,149.6,123.3,149.6z"/>
	</g>
	<path id="el2lwjg168jul" class="st5" d="M120.4,157.6l2.8,13.9c0.2,1.1,1.3,1.9,2.5,1.6l22.2-4.5c1.1-0.2,1.9-1.3,1.6-2.5
		l-2.8-13.9L120.4,157.6z"/>
	<g id="el9o36gykrzb">
		<rect id="ela07nyy394qn" x="135.7" y="156.5" class="st11" width="3.4" height="2.8"/>
	</g>
	<g id="el468ggmofee">
		<rect id="elatlje71qmsq" x="136.5" y="160.6" class="st11" width="3.4" height="2.8"/>
	</g>
	<g id="elyjg7x71gxtf">
		<rect id="elx2pmo8e2df" x="141.8" y="155.3" class="st11" width="3.4" height="2.8"/>
	</g>
	<g id="el81kemq8xfed">
		<rect id="elbbdqoaq0orm" x="142.6" y="159.3" class="st11" width="3.4" height="2.8"/>
	</g>
	<g id="eln5hqf5retdt">
		<rect id="elnnjmjjpproa" x="129.5" y="157.8" class="st11" width="3.4" height="2.8"/>
	</g>
	<g id="elpiz34expxo">
		<rect id="elo3d5x1o70vd" x="130.4" y="161.8" class="st11" width="3.4" height="2.8"/>
	</g>
	<g id="elt47u6lf61n">
		<rect id="elexgcakxicz" x="123.4" y="159" class="st11" width="3.3" height="2.8"/>
	</g>
	<g id="eltqa2shi7jrf">
		<rect id="el99j2mp34qov" x="124.2" y="163.1" class="st11" width="3.3" height="2.8"/>
	</g>
	<g id="elop3ryxkuqt">
		<rect id="elqxafcr9rhsa" x="137.3" y="164.6" class="st11" width="3.4" height="2.8"/>
	</g>
	<g id="elqns235v618q">
		<rect id="elmixt1oht7k8" x="143.4" y="163.4" class="st11" width="3.4" height="2.8"/>
	</g>
	<g id="elkf4juvd95nn">
		<rect id="elqfl0a9tlqe8" x="131.2" y="165.9" class="st11" width="3.4" height="2.8"/>
	</g>
	<g id="el6temc86gp92">
		<rect id="eltt9lsbw0lrc" x="125.1" y="167.1" class="st11" width="3.4" height="2.8"/>
	</g>
</g>
<g id="freepik--Character--inject-69">
	<path id="el2fho0wpmwc7" class="st12" d="M290.9,126.2c13.2-0.7,21,12.2,13.3,20.5s-2.2,12.3,0.9,13.8c-3.4,9.7-30.4,11.1-36.2,2.9
		c-4.8-6.9,14-15.8,9.5-23.3S280.6,126,290.9,126.2z"/>
	<path id="elxkb1s18yygd" class="st13" d="M210.9,184.6l1.9,2.1c0.7,0.8,1.7,1.2,2.8,1.1l4.9-0.5c2-0.2,3.7-1.4,4.7-3.1l0.6-1.1
		c-2.8-3.7-8.6-5.6-8.6-5.6l-1.6-0.7c-1.3-0.7-3-0.1-3.6,1.2c0,0,0,0,0,0l-1.5,3.1C209.8,182.4,210.1,183.7,210.9,184.6z"/>
	<path id="el9qmxa4x9e3b" class="st4" d="M273.4,184.1c-1.1,1.2-2,2.2-3.1,3.3s-2,2.1-3.1,3.2c-2.1,2.1-4.2,4.2-6.4,6.2
		c-4.5,4.2-9.3,8-14.6,11.3h-0.1c-0.1,0.1-0.3,0.2-0.4,0.2c-1.5,0.7-3.1,1-4.7,1c-1.2-0.1-2.4-0.3-3.6-0.7c-1.7-0.6-3.2-1.4-4.7-2.4
		c-2.3-1.6-4.4-3.5-6.4-5.5c-1.9-1.9-3.6-3.8-5.2-5.8s-3.2-3.9-4.8-6l9.9-7.1c1.2,1.7,2.7,3.6,4.1,5.4s3,3.4,4.5,5
		c1.4,1.4,3,2.7,4.6,3.9c0.5,0.4,1.1,0.7,1.7,0.9c0.1,0.1,0.2,0,0,0c-0.4,0-0.8,0.1-1.2,0.3l-0.4,0.2c2.1-1.4,4.2-2.9,6.1-4.6
		c2-1.7,4-3.6,5.9-5.5s3.8-3.9,5.6-5.9c0.9-1,1.8-2.1,2.7-3.1s1.8-2.1,2.5-3.1L273.4,184.1z"/>
	<g id="elr166lhr57bb">
		<path id="el16c8rquk0zih" class="st9" d="M273.4,184.1c-1.1,1.2-2,2.2-3.1,3.3s-2,2.1-3.1,3.2c-2.1,2.1-4.2,4.2-6.4,6.2
			c-4.5,4.2-9.3,8-14.6,11.3h-0.1c-0.1,0.1-0.3,0.2-0.4,0.2c-1.5,0.7-3.1,1-4.7,1c-1.2-0.1-2.4-0.3-3.6-0.7
			c-1.7-0.6-3.2-1.4-4.7-2.4c-2.3-1.6-4.4-3.5-6.4-5.5c-1.9-1.9-3.6-3.8-5.2-5.8s-3.2-3.9-4.8-6l9.9-7.1c1.2,1.7,2.7,3.6,4.1,5.4
			s3,3.4,4.5,5c1.4,1.4,3,2.7,4.6,3.9c0.5,0.4,1.1,0.7,1.7,0.9c0.1,0.1,0.2,0,0,0c-0.4,0-0.8,0.1-1.2,0.3l-0.4,0.2
			c2.1-1.4,4.2-2.9,6.1-4.6c2-1.7,4-3.6,5.9-5.5s3.8-3.9,5.6-5.9c0.9-1,1.8-2.1,2.7-3.1s1.8-2.1,2.5-3.1L273.4,184.1z"/>
	</g>
	<path id="el2fdlu6w9es4" class="st4" d="M297.1,416.2c7,0,6.5-0.1,10.4-0.2c3.4-0.1,4.1,0.3,6.8,0.2c2.3,0,2.2-2.2,1.6-4.7
		c-0.3-1.2-0.8-2.8-1.2-4.8h-10.6c-1.8,3-4.9,5-8.4,5.3C292,412.6,294.4,416.2,297.1,416.2z"/>
	<path id="el5bz205xoqfj" class="st4" d="M244.7,416.2c6.8,0,9.1-0.5,13-0.6c3.3-0.1,3.8,0.6,7.1,0.6c2.2,0,2.6-2.5,1.9-4.4
		c-0.8-1.6-1.4-3.3-1.9-5.1h-9.4c-1.8,3-6.6,5.2-11.8,5.6C239.9,412.6,242,416.2,244.7,416.2z"/>
	<path id="elwldtxmpx36h" class="st12" d="M261.4,230c0,0-3.7,49.2-2.2,80.4c-1.6,29.3-3.8,96.4-3.8,96.4c0.2,1.5,8.1,0.9,9.4,0
		c0,0,17-48.9,12.7-96.4c18.7-49.6,16.6-80.4,16.6-80.4H261.4z"/>
	<path id="elj0k6p1rx9n9" class="st12" d="M271.2,230c0,0,14.5,55.5,20.3,82.7c6.1,28.6,14.2,75.1,12.6,94.1c1.6,1,7.3,1,10.6,0
		c0,0,12.5-65.3-3.3-92.8c5.5-67.8-12.5-84-12.5-84H271.2z"/>
	<path id="el5pi3n91kajt" class="st12" d="M303.4,402.8c-0.1,1.3-0.2,2.6-0.5,3.9c-0.1,0.4,0.1,0.8,0.5,1c0,0,0.1,0,0.1,0
		c3.9,0.6,9.5-0.3,11.3-0.6c0.3-0.1,0.6-0.3,0.7-0.7l0.7-3.6c0.1-0.4-0.2-0.8-0.6-0.9c-0.1,0-0.1,0-0.2,0l-11.2,0.2
		C303.8,402.1,303.5,402.4,303.4,402.8z"/>
	<g id="el6kn9m31otkp">
		<path id="el2vnjgxex6oy" class="st14" d="M303.4,402.8c-0.1,1.3-0.2,2.6-0.5,3.9c-0.1,0.4,0.1,0.8,0.5,1c0,0,0.1,0,0.1,0
			c3.9,0.6,9.5-0.3,11.3-0.6c0.3-0.1,0.6-0.3,0.7-0.7l0.7-3.6c0.1-0.4-0.2-0.8-0.6-0.9c-0.1,0-0.1,0-0.2,0l-11.2,0.2
			C303.8,402.1,303.5,402.4,303.4,402.8z"/>
	</g>
	<path id="el8qvpbap7pdv" class="st12" d="M254.5,402.7c-0.1,1-0.2,2.8-0.4,4.2c-0.1,0.4,0.3,0.8,0.7,0.9c3.5,0.3,7,0.2,10.4-0.1
		c0.3,0,0.6-0.3,0.7-0.6l0.9-3.6c0.1-0.4-0.2-0.9-0.6-1c0,0-0.1,0-0.1,0l-10.7-0.4C255,401.9,254.6,402.2,254.5,402.7
		C254.5,402.6,254.5,402.7,254.5,402.7z"/>
	<g id="el9hddghhq82">
		<path id="eltufhhbwqqr" class="st14" d="M254.5,402.7c-0.1,1-0.2,2.8-0.4,4.2c-0.1,0.4,0.3,0.8,0.7,0.9c3.5,0.3,7,0.2,10.4-0.1
			c0.3,0,0.6-0.3,0.7-0.6l0.9-3.6c0.1-0.4-0.2-0.9-0.6-1c0,0-0.1,0-0.1,0l-10.7-0.4C255,401.9,254.6,402.2,254.5,402.7
			C254.5,402.6,254.5,402.7,254.5,402.7z"/>
	</g>
	<path id="elvdcsqk6uc8" class="st5" d="M259.3,185.8c-0.2,5.7-0.1,11.5,0.2,17.2c0.3,7.5,0.8,14.8,1.9,27H299
		c-0.8-10.6,0.5-22.6,7.2-46.4c1.5-4.6-1.1-9.5-5.7-11c-0.6-0.2-1.2-0.3-1.8-0.4c-1.5-0.1-3.1-0.3-4.7-0.4c-5.7-0.4-11.3-0.4-17,0
		c-1.9,0.2-3.8,0.4-5.6,0.6C264.7,173.4,259.6,179,259.3,185.8z"/>
	<path id="el5m4e6zkptq" class="st13" d="M292.8,152.6c-1.5,5.5-3.3,15.5,0.3,19.2c0,0-5.2-0.8-16.2,6c-3.2-4.6-0.8-6-0.8-6
		c6.2-1.5,6.4-6,5.7-10.3L292.8,152.6z"/>
	<path id="elwcukbevr3s" class="st4" d="M279.2,176.5c2.1,1.4,3,6.7,3,6.7s13.7-5.2,13.2-11.3c-1.1-0.6-2.2-1.3-3.2-2
		C292.2,170,281.3,174.4,279.2,176.5z"/>
	<path id="el6jr5zv6b3ax" class="st4" d="M275.7,175.9c-1,1.9-1.8,3.9-2.3,6c-5.5-4.6,0.9-10.1,0.9-10.1c1-0.6,2.2-0.7,3.3-0.5
		C276,172.2,275.2,174.1,275.7,175.9z"/>
	<g id="elmlge4r9v52s">
		<path id="elibwuv4qws1s" class="st15" d="M288.3,156.3l-6.6,5.3c0.2,1,0.3,2,0.3,3c2.4-0.3,5.8-2.9,6.2-5.3
			C288.4,158.3,288.4,157.3,288.3,156.3z"/>
	</g>
	<path id="eljcucln6nkno" class="st13" d="M297.5,141.6c-1.7,8.9-2.2,12.6-7.2,16.9c-7.6,6.4-18,3-19-6c-0.9-8.1,2-21.2,11.1-24.2
		c6-2.1,12.6,1,14.7,7C297.8,137.4,297.9,139.6,297.5,141.6z"/>
	<path id="elwdn4m4jifwa" class="st12" d="M291.1,130.1c-2.7,7.2,3.1,11.4,4.4,17.6C302.1,143.3,302.6,124.8,291.1,130.1z"/>
	<path id="eljbenvkf141" class="st5" d="M292.4,142.1c-0.2,0-0.5-0.1-0.7-0.2c-0.4-0.2-0.6-0.5-0.7-0.9c-0.1-0.4-0.1-0.8,0.1-1.2
		c0.2-0.4,0.5-0.6,0.9-0.8l4.7-1.5c0.8-0.3,1.7,0.2,2,1s-0.2,1.7-1,2l0,0l-4.8,1.5C292.8,142.1,292.6,142.1,292.4,142.1z M297.1,138
		c-0.1,0-0.2,0-0.3,0.1l-4.7,1.5c-0.6,0.2-0.9,0.8-0.7,1.3c0.1,0.3,0.3,0.5,0.5,0.6c0.3,0.1,0.5,0.2,0.8,0.1l4.7-1.5
		c0.6-0.2,0.9-0.8,0.7-1.3c0,0,0,0,0,0c-0.1-0.3-0.3-0.5-0.5-0.6C297.4,138,297.3,138,297.1,138L297.1,138z"/>
	<path id="elttdxqvnw5g" class="st12" d="M283.5,143.1c-0.1,0.8-0.6,1.3-1.1,1.3s-0.8-0.7-0.7-1.4s0.6-1.3,1.1-1.3
		S283.6,142.4,283.5,143.1z"/>
	<path id="el9o6ws5l1uqh" class="st12" d="M274.4,142.6c-0.1,0.8-0.6,1.3-1.1,1.3s-0.8-0.7-0.7-1.4s0.6-1.3,1.1-1.3
		S274.5,141.8,274.4,142.6z"/>
	<path id="elqo6ukmeqbu" class="st12" d="M274,141.2l-1.7-0.6C272.3,140.6,273,142.1,274,141.2z"/>
	<path id="eltzw455uofo" class="st16" d="M276.8,144c-0.9,1.7-2,3.2-3.3,4.6c0.7,0.6,1.6,0.9,2.5,0.7L276.8,144z"/>
	<path id="el0qnin8l68of" class="st12" d="M279.8,152.4c-0.4,0-0.8,0-1.3,0c-0.1,0-0.2-0.1-0.2-0.2c0,0,0,0,0,0
		c0-0.1,0.1-0.2,0.3-0.2c1.9,0.1,3.8-0.6,5.1-2c0.1-0.1,0.2-0.1,0.3,0c0,0,0,0,0,0c0.1,0.1,0.1,0.2,0,0.3
		C282.9,151.4,281.4,152.2,279.8,152.4z"/>
	<path id="elsopyza6nd2" class="st13" d="M298.5,149.2c-1,1.5-2.5,2.4-4.2,2.7c-2.1,0.2-2.7-2.2-1.6-4.5c0.9-2,3.1-4.6,5.1-3.8
		S299.8,147.3,298.5,149.2z"/>
	<path id="elw1374z50y2i" class="st5" d="M297.4,152.2c0,1.2-1,2.2-2.2,2.2c-1.2,0-2.2-1-2.2-2.2s1-2.2,2.2-2.2
		S297.4,151,297.4,152.2L297.4,152.2z"/>
	<path id="el8k71iivwbje" class="st12" d="M286.3,138.8c-0.1,0-0.2-0.1-0.3-0.1c-0.7-0.8-1.8-1.2-2.9-1.1c-0.2,0-0.4-0.1-0.5-0.3
		c0,0,0,0,0,0c0-0.2,0.1-0.5,0.4-0.5c1.4-0.2,2.7,0.3,3.6,1.4c0.2,0.2,0.1,0.5,0,0.6C286.5,138.7,286.4,138.8,286.3,138.8z"/>
	<path id="elrwr3ami091" class="st12" d="M271.9,138.2c-0.1,0-0.2,0-0.3-0.1c-0.2-0.2-0.2-0.4-0.1-0.6c0,0,0,0,0,0
		c0.8-1.2,2.2-1.9,3.6-1.9c0.2,0,0.4,0.2,0.4,0.4c0,0,0,0,0,0c0,0.2-0.2,0.4-0.5,0.4c-1.1,0.1-2.2,0.6-2.9,1.6
		C272.1,138.1,272,138.1,271.9,138.2z"/>
	<path id="elxlt6twnvc3" class="st12" d="M283,141.8l-1.7-0.6C281.3,141.1,282,142.6,283,141.8z"/>
	<path id="elxr8gb8vavvp" class="st4" d="M295.8,170c-4.2,2.9-9.8,33.6-11.4,79.4c-1,27.7,0,55.3,2.8,82.9c0,0,18.3-20.1,29.7-26
		c0.2-42.7-8.9-71.9-7.8-82.6s7-40.6,2.4-46.2S295.8,170,295.8,170z"/>
	<g id="elcqn8gv5uxje">
		<path id="elkykmbzr9bwk" class="st17" d="M295.8,170c-4.2,2.9-9.8,33.6-11.4,79.4c-1,27.7,0,55.3,2.8,82.9c0,0,18.3-20.1,29.7-26
			c0.2-42.7-8.9-71.9-7.8-82.6s7-40.6,2.4-46.2S295.8,170,295.8,170z"/>
	</g>
	<path id="elatjkdxa5m3s" class="st4" d="M274.7,171.5c-4.9,7.2-15.6,97-5.5,160.7c-8-4.4-13.8-16.7-13.8-16.7s-0.8-55.4,3-85.5
		C257.6,194.6,253.4,170.7,274.7,171.5z"/>
	<g id="elsszz6k9v93k">
		<path id="elr6hn1xvis7" class="st17" d="M274.7,171.5c-4.9,7.2-15.6,97-5.5,160.7c-8-4.4-13.8-16.7-13.8-16.7s-0.8-55.4,3-85.5
			C257.6,194.6,253.4,170.7,274.7,171.5z"/>
	</g>
	<path id="elku5cbu7y5wb" class="st18" d="M289.1,230.4c-2.5-4.8-4.8-9.7-6.8-14.8c-3.1-7.8-5.5-17-5.5-17s-23.3-0.9-27.7,1.8
		c2.5,9.9,13.6,33.8,13.6,33.8S280.3,233.8,289.1,230.4z"/>
	<path id="el8n1zcv46upr" class="st4" d="M265.1,235.7l21.2-0.6c2.1-0.1,3.2-1.6,2.4-3.5l-13.4-30.8c-1-2-3.1-3.2-5.3-3.2l-21.2,0.6
		c-2.1,0.1-3.2,1.6-2.4,3.5l13.4,30.8C260.8,234.4,262.9,235.7,265.1,235.7z"/>
	<path id="el30hyjjmd0rj" class="st5" d="M264,236.9c-2.3-0.1-4.4-1.4-5.4-3.4l-13.4-30.8c-0.4-0.8-0.4-1.8,0.1-2.6
		c0.6-0.8,1.6-1.3,2.6-1.3l21.2-0.6c2.3,0,4.5,1.3,5.6,3.4l13.4,30.8c0.4,0.8,0.4,1.8-0.1,2.6c-0.6,0.8-1.6,1.3-2.6,1.3l-21.2,0.6
		H264z M264.1,236.4L264.1,236.4l21.2-0.6c0.8,0,1.6-0.3,2.1-1c0.4-0.7,0.4-1.4,0-2.1l-13.4-30.8c-1-1.9-2.9-3.1-5.1-3.1l-21.2,0.6
		c-0.8,0-1.6,0.3-2.2,1c-0.4,0.7-0.4,1.4,0,2.1l13.3,30.8C260,235.3,262,236.4,264.1,236.4L264.1,236.4z"/>
	<path id="el4zslmb6gopf" class="st13" d="M276.6,212.6l2.5-1.2c1-0.5,2.1-0.4,3,0.1l4.3,2.4c1.7,0.9,2.9,2.7,3.1,4.6l0.1,1.2
		c-4,2.3-10.1,1.9-10.1,1.9l-1.8,0.1c-1.5,0.1-2.8-1-2.9-2.5c0,0,0,0,0,0l-0.2-3.4C274.7,214.3,275.4,213.2,276.6,212.6z"/>
	<g id="ele4cm44lq63k">
		<path id="elwl7duitvyb" class="st11" d="M303.8,189.1c-0.8,13.7-0.9,26.3,2.8,28.4C310.9,213.3,310.5,207.4,303.8,189.1z"/>
	</g>
	<path id="el4muvqcefoln" class="st4" d="M313,179.4c0.5,1.5,1,2.9,1.4,4.4s0.9,2.9,1.3,4.3c0.8,2.9,1.6,5.8,2.2,8.7
		c1.5,6.1,2.3,12.3,2.4,18.6c0,0.1,0,0.3,0,0.4v0.1c-0.2,1.9-0.9,3.7-2.2,5.1c-0.9,1.1-2,1.9-3.3,2.6c-1.7,0.8-3.4,1.4-5.3,1.7
		c-2.8,0.4-5.6,0.6-8.5,0.5c-2.7,0-5.3-0.2-7.8-0.4s-5-0.5-7.7-0.9l2-12c2.2,0.4,4.6,0.7,6.8,0.9s4.6,0.4,6.8,0.4
		c2.1,0,4.1-0.1,6.1-0.4c0.6-0.1,1.2-0.3,1.7-0.5c0.1,0-0.1,0-0.4,0.4c-0.4,0.5-0.7,1.1-0.8,1.8v0.5c-0.1-2.5-0.4-5.1-0.8-7.6
		c-0.5-2.6-1.1-5.2-1.8-7.9s-1.5-5.3-2.4-7.9c-0.5-1.3-0.9-2.6-1.4-3.9s-1-2.6-1.5-3.8L313,179.4z"/>
	<g id="elgez02ttzs2m">
		<path id="eln5aaxua0q4" class="st17" d="M313,179.4c0.5,1.5,1,2.9,1.4,4.4s0.9,2.9,1.3,4.3c0.8,2.9,1.6,5.8,2.2,8.7
			c1.5,6.1,2.3,12.3,2.4,18.6c0,0.1,0,0.3,0,0.4v0.1c-0.2,1.9-0.9,3.7-2.2,5.1c-0.9,1.1-2,1.9-3.3,2.6c-1.7,0.8-3.4,1.4-5.3,1.7
			c-2.8,0.4-5.6,0.6-8.5,0.5c-2.7,0-5.3-0.2-7.8-0.4s-5-0.5-7.7-0.9l2-12c2.2,0.4,4.6,0.7,6.8,0.9s4.6,0.4,6.8,0.4
			c2.1,0,4.1-0.1,6.1-0.4c0.6-0.1,1.2-0.3,1.7-0.5c0.1,0-0.1,0-0.4,0.4c-0.4,0.5-0.7,1.1-0.8,1.8v0.5c-0.1-2.5-0.4-5.1-0.8-7.6
			c-0.5-2.6-1.1-5.2-1.8-7.9s-1.5-5.3-2.4-7.9c-0.5-1.3-0.9-2.6-1.4-3.9s-1-2.6-1.5-3.8L313,179.4z"/>
	</g>
	<path id="el2s66oh3ebf2" class="st12" d="M293.8,132.7c-4.5,4.5-24.7-2.8-23.9,4.7c-3.1-7,1.8-14.5,14.3-14.5
		C299.4,122.9,296.5,130,293.8,132.7z"/>
	<path id="el0y803lnwva3q" class="st4" d="M239.7,155.8l-1-0.3c0.7-2.1,1-4.2,1.1-6.4h1C240.8,151.3,240.4,153.6,239.7,155.8z"/>
	<path id="el8kmlyob2itq" class="st4" d="M239.4,143c-1.3-6.4-5.1-11.9-10.6-15.4l0.6-0.8c5.7,3.7,9.6,9.4,11,16.1L239.4,143z"/>
	<path id="el27xnvvpqr6e" class="st4" d="M215.4,173.5c-14.1,0-25.4-11.4-25.4-25.5c0-4.9,1.4-9.7,4.1-13.9l0.8,0.5
		c-7.4,11.3-4.1,26.5,7.2,33.8c4,2.6,8.6,3.9,13.3,3.9L215.4,173.5z"/>
	<g id="eljfhz0t5dreb">
		<circle id="elwao8n508qvq" class="st4" cx="215.4" cy="148.1" r="22.1"/>
	</g>
	<g id="elnb5ffom848e">
		<path id="el465p5v8z5uf" class="st7" d="M212.4,161.5l-0.3-0.2c2.6-6.9,8.8-11.5,12.5-17.7c1.2-2,0.4-4.7-1.3-6.3l0.2-0.4
			c0.2-0.4,0-0.8-0.4-1l0,0c-0.4-0.2-0.8,0-1,0.4l-0.1,0.2c-1.9-0.8-3.9,0.2-5.1,2.1c-3.7,6.2-9.9,10.8-12.5,17.7l0,0
			c-0.3-0.2-0.8-0.1-1,0.2c-0.2,0.3-0.1,0.8,0.2,1l8,5.2c0.3,0.3,0.8,0.2,1-0.1s0.2-0.8-0.1-1C212.6,161.6,212.5,161.6,212.4,161.5
			L212.4,161.5z"/>
	</g>
	<path id="ely4rmaop0lq" class="st5" d="M209.8,151c-0.1,0-0.2,0-0.3-0.1c-0.2-0.2-0.3-0.5-0.1-0.7c0,0,0,0,0,0c1-1.2,2-2.5,3-3.7
		c0.2-0.2,0.5-0.2,0.7-0.1c0.2,0.2,0.2,0.5,0.1,0.7c0,0,0,0,0,0c-1,1.2-2.1,2.4-3,3.6C210.1,150.9,210,151,209.8,151z"/>
	<path id="elpo5f8eyqzoj" class="st5" d="M206.1,157.4c-0.1,0-0.1,0-0.2,0c-0.3-0.1-0.4-0.4-0.3-0.6c0,0,0,0,0,0
		c0.5-1.4,1.2-2.8,2.1-4.1c0.1-0.2,0.5-0.3,0.7-0.2c0.2,0.1,0.3,0.5,0.2,0.7c-0.8,1.2-1.5,2.5-2,3.9
		C206.4,157.3,206.3,157.4,206.1,157.4z"/>
	<path id="elfxw0b81gvr" class="st5" d="M217.9,150c-0.1,0-0.2,0-0.3-0.1c-0.2-0.2-0.2-0.5-0.1-0.7c0,0,0,0,0,0
		c0.7-0.8,1.4-1.6,2-2.4c0.2-0.2,0.5-0.2,0.7-0.1c0,0,0,0,0,0c0.2,0.2,0.2,0.5,0.1,0.7c-0.6,0.8-1.3,1.6-2,2.4
		C218.2,149.9,218,150,217.9,150z"/>
	<path id="elezqrw6tkzqe" class="st5" d="M221.7,145.3c-0.1,0-0.2,0-0.3-0.1c-0.2-0.2-0.3-0.5-0.1-0.7c0.5-0.7,1-1.4,1.4-2.1
		c0.5-1.2,0.1-2.6-0.9-3.4c-0.2-0.2-0.3-0.5-0.1-0.7s0.5-0.3,0.7-0.1c0,0,0.1,0.1,0.1,0.1c1.4,1.1,1.8,3,1.1,4.6
		c-0.4,0.7-0.9,1.4-1.4,2.2C222,145.3,221.9,145.3,221.7,145.3z"/>
</g>
<g id="freepik--Plant--inject-69">
	<path id="elz31retgkvtn" class="st4" d="M202.9,296.8c0.6,5.2,13.6,3.7,22-3.8c-5.2,2.6-16.3,0.8-21,2.2c1.3-2,2.5-3.9,3.7-5.7
		c1.3,3.5,10.9,1.8,17-4.3c-3.8,2.1-11.7,1.4-15.7,2.4c2-2.9,3.9-5.5,5.7-7.7c2.8,1.2,9.3-2.6,12.6-8.5c-3.1,3.1-11.7,4.5-13.9,6.8
		c0.1,0.4,0.2,0.7,0.4,1c-0.8,1.1-1.7,2.2-2.6,3.4c-0.7-3.3-5.8-9.5-6.1-13.6c-1.6,7.6,2,15.9,5.3,14.6c-1.5,2-3.1,4.3-4.7,6.7
		c-1.2-3.6-7.4-9.9-8.1-14.5c-1,8.5,3.6,17.2,7.2,16c-1.3,2-2.6,4.1-3.9,6.3c-2-4.3-11.2-11.2-13-16.9c0.3,10.8,7.6,20.8,11.9,18.9
		c-1.3,2.3-2.6,4.6-3.9,7.1c-2.7-4.7-13.6-11.6-16.1-17.8c1.3,12,10.3,22.5,14.9,20.2c-1.4,2.8-2.7,5.8-4,8.8
		c-3.4-4.4-16.8-9.3-20.8-15.4c3.9,12.2,15.6,21.3,19.8,17.6c-1.6,4.1-3,8.2-4.2,12.4c-4.1-4-18.7-7.1-23.8-12.8
		c5.9,12,19.1,19.6,23.1,15.3c-1,3.8-1.8,7.6-2.3,11.5c-5.4-3.6-22.3-4.2-29-9.5c8.8,12,24.8,17.8,28.6,12.7
		c-1.1,9.5-0.6,19.1,1.4,28.5l1.1-0.3c-2.3-10.6-2.6-21.5-0.9-32.2c1.8,6.5,19.3,4.6,30.9-5.5c-7.8,3.7-24.5,0.5-30.5,2.9
		c0.7-4.1,1.7-8.1,2.9-12.1c1.9,5.4,17,4.3,27.4-4c-6.8,2.9-20.8-0.3-26.5,1.2c1.3-3.9,2.7-7.7,4.3-11.3c1.3,5.5,16.1,4.7,26.4-3.2
		c-6.5,2.6-19.7-0.6-25.3,0.7c1.4-3.2,3-6.3,4.5-9.2c0.6,5.7,15.1,4.9,25-3c-6.1,2.6-18.7-0.2-24,1.2
		C200.2,301.5,201.6,299.1,202.9,296.8z"/>
	<g id="elov532wuh4f">
		<path id="el1o1lk4naobt" class="st19" d="M202.9,296.8c0.6,5.2,13.6,3.7,22-3.8c-5.2,2.6-16.3,0.8-21,2.2c1.3-2,2.5-3.9,3.7-5.7
			c1.3,3.5,10.9,1.8,17-4.3c-3.8,2.1-11.7,1.4-15.7,2.4c2-2.9,3.9-5.5,5.7-7.7c2.8,1.2,9.3-2.6,12.6-8.5c-3.1,3.1-11.7,4.5-13.9,6.8
			c0.1,0.4,0.2,0.7,0.4,1c-0.8,1.1-1.7,2.2-2.6,3.4c-0.7-3.3-5.8-9.5-6.1-13.6c-1.6,7.6,2,15.9,5.3,14.6c-1.5,2-3.1,4.3-4.7,6.7
			c-1.2-3.6-7.4-9.9-8.1-14.5c-1,8.5,3.6,17.2,7.2,16c-1.3,2-2.6,4.1-3.9,6.3c-2-4.3-11.2-11.2-13-16.9c0.3,10.8,7.6,20.8,11.9,18.9
			c-1.3,2.3-2.6,4.6-3.9,7.1c-2.7-4.7-13.6-11.6-16.1-17.8c1.3,12,10.3,22.5,14.9,20.2c-1.4,2.8-2.7,5.8-4,8.8
			c-3.4-4.4-16.8-9.3-20.8-15.4c3.9,12.2,15.6,21.3,19.8,17.6c-1.6,4.1-3,8.2-4.2,12.4c-4.1-4-18.7-7.1-23.8-12.8
			c5.9,12,19.1,19.6,23.1,15.3c-1,3.8-1.8,7.6-2.3,11.5c-5.4-3.6-22.3-4.2-29-9.5c8.8,12,24.8,17.8,28.6,12.7
			c-1.1,9.5-0.6,19.1,1.4,28.5l1.1-0.3c-2.3-10.6-2.6-21.5-0.9-32.2c1.8,6.5,19.3,4.6,30.9-5.5c-7.8,3.7-24.5,0.5-30.5,2.9
			c0.7-4.1,1.7-8.1,2.9-12.1c1.9,5.4,17,4.3,27.4-4c-6.8,2.9-20.8-0.3-26.5,1.2c1.3-3.9,2.7-7.7,4.3-11.3c1.3,5.5,16.1,4.7,26.4-3.2
			c-6.5,2.6-19.7-0.6-25.3,0.7c1.4-3.2,3-6.3,4.5-9.2c0.6,5.7,15.1,4.9,25-3c-6.1,2.6-18.7-0.2-24,1.2
			C200.2,301.5,201.6,299.1,202.9,296.8z"/>
	</g>
	<path id="elgtv8nuqczcq" class="st4" d="M172,379l-1.1-0.1c2.5-36.6-26.3-67-38.8-78.3l0.7-0.8C145.4,311.3,174.5,342,172,379z"/>
	<path id="elbqx8praodeu" class="st4" d="M142.5,310.2c0-2.9,4.9-9.4,4.9-13.5C149.5,304.3,146,313,142.5,310.2z"/>
	<path id="ell8xxa09fxk" class="st4" d="M137.1,304.4c-0.3-2.6,3.6-8.7,3.2-12.3C142.8,298.6,140.4,306.5,137.1,304.4z"/>
	<path id="elkab1z60h5eg" class="st4" d="M147.4,316c0.5-3.6,7.8-11,8.6-16.1C157.3,309.8,151.3,320,147.4,316z"/>
	<path id="el6zk4jxwn2g6" class="st4" d="M152.6,322.8c0.9-4,9.8-11.6,11.1-17.3C164.2,316.7,156.5,327.7,152.6,322.8z"/>
	<path id="elrt78ynpyokm" class="st4" d="M158.2,330.9c1.8-4,12.6-9.9,15.2-15.6C171.6,327.1,161.3,336.8,158.2,330.9z"/>
	<path id="elhwj28hkltv7" class="st4" d="M164.3,342.2c2.4-3.9,14.5-8.4,18-13.8C178.6,340.3,166.5,348.8,164.3,342.2z"/>
	<path id="el7rv675l03no" class="st4" d="M168.4,353.3c3.5-3.8,17.9-6.4,22.9-11.8C184.8,354,169.6,361.1,168.4,353.3z"/>
	<path id="eleew5im5srcm" class="st4" d="M140.8,308.1c-2.7-1-10.5,1.2-14.3-0.2C132.8,312.5,142.1,312.3,140.8,308.1z"/>
	<path id="elmf6sngv9wj" class="st4" d="M134.8,300.6c-2-1.6-9.3-1.6-12.2-3.8C126.8,302.4,134.8,304.5,134.8,300.6z"/>
	<path id="el5mp4uphbzwn" class="st4" d="M145.4,313.6c-3.5-1.2-13.3,2.3-18.2,0.7C135.6,319.7,147.4,318.8,145.4,313.6z"/>
	<path id="elapzutfmss56" class="st4" d="M150.6,320c-4-1.1-14.8,3.4-20.5,2C139.9,327.5,153.2,325.7,150.6,320z"/>
	<path id="elnvi8ixs7ghm" class="st4" d="M156.7,328.3c-4.3-1-15.6,4-21.6,2.5C145.5,336.5,159.5,334.3,156.7,328.3z"/>
	<path id="el4cr0x8cecz3" class="st4" d="M162.7,338.9c-4.4-1.2-16.3,3.9-22.6,2.3C150.9,347.3,165.6,345.2,162.7,338.9z"/>
	<path id="eliuwdekhktip" class="st4" d="M167.3,350.6c-4.9-1.5-18.7,3.5-25.7,1.4C153.6,359.5,170.2,357.9,167.3,350.6z"/>
	<path id="elaqlev254ai5" class="st4" d="M163.9,416.2h24.4c1.5,0,2.8-1.2,3-2.7l4.7-45.7c0.2-1.6-1-3.1-2.7-3.3c-0.1,0-0.2,0-0.3,0
		h-33.8c-1.7,0-3,1.3-3,3c0,0.1,0,0.2,0,0.3l4.7,45.7C161,415.1,162.3,416.3,163.9,416.2z"/>
	<g id="elojgag2ghwb">
		<path id="elr3wf2hpl1" class="st10" d="M163.9,416.2h24.4c1.5,0,2.8-1.2,3-2.7l4.7-45.7c0.2-1.6-1-3.1-2.7-3.3c-0.1,0-0.2,0-0.3,0
			h-33.8c-1.7,0-3,1.3-3,3c0,0.1,0,0.2,0,0.3l4.7,45.7C161,415.1,162.3,416.3,163.9,416.2z"/>
	</g>
</g>
</svg>
